<svg width="70" height="51" viewBox="0 0 70 51" fill="none" xmlns="http://www.w3.org/2000/svg">
<path d="M65.6741 16.0471C65.6727 15.1137 65.3982 14.1671 64.7911 13.3867L59.9195 7.15352C59.1035 6.11745 57.8621 5.58999 56.6213 5.58789C55.8828 5.58789 55.1311 5.77722 54.4667 6.19151L49.7167 9.14671C49.2172 9.46529 48.3607 9.68396 47.5335 9.67837C46.8908 9.68116 46.2697 9.55262 45.8596 9.35001L41.2081 7.09693C40.4578 6.73574 39.6215 6.58763 38.7804 6.58623C37.5724 6.59182 36.3491 6.88874 35.3662 7.5699L34.8233 7.95066C34.3895 7.73408 33.7265 7.40433 32.9755 7.03056C32.0749 6.58903 31.0158 6.41088 29.9462 6.40738C28.98 6.41018 28.0138 6.55899 27.1657 6.91738L23.9974 8.26923C23.4818 8.49279 22.6616 8.63881 21.847 8.63531C21.0324 8.63881 20.2136 8.49279 19.698 8.26923L16.5269 6.91669C15.9484 6.67007 15.3302 6.56458 14.7175 6.56388C14.0118 6.56458 13.3104 6.7036 12.6586 6.96769C12.0075 7.23316 11.4032 7.6251 10.9218 8.16304L5.14832 14.6289C4.50838 15.3436 4.1905 16.2434 4.1919 17.1293C4.1905 18.1856 4.64252 19.2454 5.51441 19.9881L10.9001 24.5829L8.34526 27.2482C7.64104 27.9832 7.29032 28.9361 7.29032 29.8786C7.28893 30.8811 7.68715 31.8934 8.4759 32.6388L8.99428 33.1314C9.48263 33.5946 10.0695 33.8894 10.6836 34.0466C10.3755 34.6132 10.2071 35.2343 10.2085 35.8567C10.2071 36.86 10.6053 37.8716 11.3927 38.6177L11.3913 38.617L11.9111 39.1117C12.6509 39.8131 13.6101 40.1624 14.5554 40.1617C15.0633 40.1624 15.5719 40.0604 16.0497 39.8606C16.2174 40.5411 16.5639 41.188 17.1089 41.705L17.6287 42.1996C18.3685 42.901 19.3263 43.2503 20.273 43.2496C21.0128 43.2503 21.7562 43.0324 22.3961 42.609C22.5833 43.2112 22.904 43.782 23.3924 44.2459L23.9121 44.7405C24.6506 45.4419 25.6098 45.7913 26.555 45.7906C27.5618 45.7913 28.5783 45.3958 29.3293 44.612L31.5873 42.2541L34.655 45.0933C35.3892 45.7745 36.3317 46.1133 37.2623 46.1112C38.2844 46.1133 39.3155 45.7039 40.068 44.8984L40.5577 44.3737C40.9804 43.9196 41.2563 43.3824 41.4163 42.8214L42.6047 43.9182C43.3403 44.5966 44.2814 44.934 45.2106 44.9333C46.2341 44.934 47.268 44.5246 48.0212 43.7184L48.5081 43.1944C49.0705 42.5936 49.387 41.8496 49.4848 41.0895C49.7985 41.1698 50.1164 41.2243 50.437 41.2243C51.4605 41.2243 52.4917 40.8156 53.2455 40.0101L53.7339 39.4861C54.4164 38.7547 54.756 37.8164 54.7546 36.8914C54.7546 36.6043 54.7133 36.3185 54.6498 36.0363C55.4986 35.9238 56.3216 35.5451 56.9476 34.8731L57.4373 34.3484C58.1199 33.6169 58.458 32.6787 58.458 31.753C58.4594 30.7344 58.0486 29.7067 57.2382 28.9578L56.3223 28.1117L64.5885 18.9722C65.3304 18.1493 65.6727 17.0901 65.6741 16.0471ZM9.91857 31.134C9.55947 30.7945 9.38202 30.3424 9.38063 29.8786C9.38202 29.4433 9.53782 29.0185 9.85849 28.6839L15.0912 23.2234C15.4322 22.8678 15.887 22.6897 16.3537 22.689C16.7903 22.6897 17.2172 22.8468 17.5546 23.1647L18.0716 23.658C18.0716 23.658 18.6067 24.4495 18.6081 24.9141C18.6067 25.262 18.5019 25.6008 18.2986 25.8943C18.2812 25.9117 12.6509 31.7795 12.6509 31.7795C12.3519 31.9912 11.9984 32.1002 11.6386 32.1016C11.2006 32.1002 10.7723 31.9437 10.4377 31.6265L9.91857 31.134ZM14.5568 38.0812C14.1187 38.0805 13.6919 37.9233 13.3558 37.6061L12.836 37.1122L12.8347 37.1115C12.4784 36.7733 12.2995 36.3199 12.2995 35.856C12.2995 35.4208 12.4567 34.996 12.776 34.6614C12.776 34.6614 19.7511 27.4005 19.8098 27.3307C20.143 27.01 20.5727 26.8444 21.0163 26.8437C21.4544 26.8444 21.8812 27.0009 22.2173 27.3188L22.737 27.8134C23.0947 28.1515 23.2722 28.6043 23.2736 29.0688C23.2722 29.5041 23.115 29.9296 22.7957 30.2642L15.8178 37.5481C15.4776 37.9023 15.0235 38.0798 14.5568 38.0812ZM20.2744 41.1691C19.8363 41.1684 19.4095 41.0112 19.0734 40.6934L18.5522 40.1994C18.1945 39.8606 18.0157 39.4079 18.0157 38.944C18.0157 38.5555 18.1477 38.179 18.4006 37.8653L23.2582 32.7953C23.5859 32.4998 23.9967 32.344 24.4221 32.344C24.8602 32.3447 25.287 32.5012 25.6231 32.8191L26.1443 33.3137C26.5006 33.6519 26.6794 34.1046 26.6808 34.5685C26.6794 35.0044 26.5208 35.4299 26.2029 35.7638L21.5347 40.6354C21.1952 40.9903 20.7411 41.1677 20.2744 41.1691ZM27.8168 43.1763C27.4772 43.5312 27.0224 43.7086 26.5557 43.71C26.1177 43.7093 25.6908 43.5522 25.3548 43.2343L24.835 42.7403C24.4787 42.4022 24.2999 41.9488 24.2985 41.4849C24.2999 41.049 24.4571 40.6235 24.7763 40.2902L27.7225 37.2142C28.0634 36.8593 28.5182 36.6811 28.9849 36.6804C29.4215 36.6811 29.8498 36.8376 30.1858 37.1562L30.707 37.6501C31.0633 37.9883 31.2408 38.441 31.2422 38.9049C31.2408 39.3408 31.0836 39.7663 30.7643 40.1002L27.8168 43.1763ZM55.9066 32.9337L55.4183 33.4576C55.0773 33.8223 54.6148 34.0068 54.1412 34.0075C53.7115 34.0068 53.2909 33.8559 52.957 33.5471L44.7271 25.9362L43.304 27.4599L52.113 35.6206C52.4798 35.9601 52.6643 36.4212 52.6671 36.8921C52.6643 37.3211 52.5127 37.7388 52.2032 38.0714L51.7162 38.5954C51.3753 38.96 50.9128 39.1438 50.4391 39.1452C50.0095 39.1438 49.5875 38.9922 49.2563 38.6855L41.0244 31.0746L39.6027 32.5983L46.9082 39.3541C47.2604 39.6915 47.4406 40.1407 47.4406 40.6018C47.4406 41.0294 47.289 41.4479 46.9795 41.7797L46.4912 42.3037C46.1516 42.6684 45.6877 42.8528 45.2127 42.8542C44.7816 42.8528 44.361 42.7012 44.0285 42.3945L36.7376 35.6632H36.7362L36.7348 35.6618L35.3159 37.1883L35.3173 37.1897L35.3445 37.2156L38.9963 40.5858C39.3197 40.9183 39.4874 41.3445 39.4888 41.7853C39.4874 42.2108 39.3372 42.6272 39.0277 42.959L38.5394 43.4837C38.1984 43.8484 37.7373 44.0314 37.2651 44.0328C36.8354 44.0314 36.4148 43.8805 36.0823 43.5724L32.9028 40.6284C33.1795 40.0855 33.3339 39.4966 33.3339 38.9056C33.3353 37.903 32.937 36.8921 32.1497 36.1453L31.6285 35.6506C30.8901 34.9499 29.9322 34.5999 28.987 34.6013C28.9136 34.6013 28.8396 34.6181 28.7676 34.6223C28.7676 34.6048 28.7718 34.5866 28.7718 34.5692C28.7732 33.5666 27.5876 31.8075 27.5876 31.8075L27.0678 31.3142C26.5152 30.7903 25.8411 30.4633 25.1396 30.332C25.2842 29.9226 25.366 29.4964 25.366 29.0695C25.366 28.067 24.9692 27.0554 24.1818 26.3093L23.662 25.8146C22.9222 25.1132 21.9644 24.7632 21.0191 24.7639C20.9087 24.7639 20.7997 24.7862 20.6901 24.796C20.66 23.8333 20.2723 22.8713 19.5177 22.1545V22.1538L18.9994 21.6613C18.2595 20.9591 17.3017 20.6091 16.3564 20.6098C15.3483 20.6091 14.3332 21.0046 13.5822 21.7884L12.347 23.0774L6.87534 18.4105C6.48201 18.0738 6.28569 17.6085 6.2843 17.1307C6.28569 16.7303 6.42193 16.3384 6.71256 16.0128L12.486 9.54703C12.7152 9.28993 13.054 9.05729 13.4508 8.8959C13.8477 8.73452 14.2983 8.64579 14.7196 8.64649C15.0863 8.64649 15.4308 8.71286 15.706 8.83163L18.8757 10.1842C19.7693 10.5607 20.8067 10.7151 21.8491 10.7186C22.8928 10.7151 23.9289 10.5607 24.8224 10.1842L27.9907 8.83233C28.4791 8.61925 29.2161 8.48721 29.949 8.49C30.7594 8.48511 31.5712 8.65278 32.0421 8.89311C32.3411 9.04192 32.6248 9.18304 32.8881 9.31508L29.657 11.5863C28.6188 12.3164 28.0592 13.4775 28.0606 14.6491C28.0592 15.4246 28.3051 16.2141 28.8053 16.884L28.8039 16.8826L29.2308 17.4562C30.0412 18.5335 31.305 19.0875 32.5682 19.0903C33.2815 19.0903 34.008 18.9101 34.6557 18.5216L36.5881 17.3612C36.9821 17.1202 37.5773 16.9679 38.1928 16.9707C38.9159 16.9665 39.6446 17.1803 40.0826 17.5023L45.4285 21.335C46.6183 22.1873 48.5563 23.7683 49.6301 24.7632L55.8179 30.4843C56.1847 30.8245 56.3691 31.2835 56.3705 31.7551C56.3698 32.1826 56.2168 32.6011 55.9066 32.9337ZM63.0368 17.5813L54.7937 26.6963L51.0511 23.2367C49.8788 22.1545 47.9457 20.5763 46.6491 19.645L41.3045 15.8123C40.3984 15.1703 39.289 14.8929 38.1921 14.8888C37.2588 14.8915 36.3184 15.0948 35.5066 15.5783L33.5756 16.7387C33.2794 16.9169 32.9301 17.0077 32.5675 17.0084C31.9191 17.0105 31.2701 16.708 30.9082 16.2155L30.4827 15.6426L30.4814 15.6412C30.255 15.3359 30.1495 14.9935 30.1481 14.647C30.1509 14.1231 30.3926 13.6145 30.8607 13.284L36.5741 9.26967C37.068 8.91197 37.9469 8.66116 38.7818 8.66745C39.3616 8.66466 39.9157 8.78133 40.295 8.96856L44.9465 11.2216C45.7394 11.6024 46.6344 11.7582 47.5349 11.7603C48.6918 11.7547 49.8614 11.5032 50.8248 10.9115L55.5761 7.95555C55.8794 7.76622 56.2433 7.66841 56.6227 7.66841C57.264 7.66701 57.9068 7.95764 58.2708 8.43201L63.1423 14.6652C63.4232 15.0222 63.5859 15.5259 63.5859 16.0478C63.5866 16.6318 63.3805 17.2061 63.0368 17.5813Z" fill="#14B1E7"/>
</svg>
